<svg width="96" height="95" viewBox="0 0 96 95" fill="none" xmlns="http://www.w3.org/2000/svg">
<g clip-path="url(#clip0_80_182)">
<path d="M17.3449 94.8823H84.0732V26.4171C84.0732 11.8506 72.2226 0 57.6562 0H43.762C29.1955 0 17.3449 11.8506 17.3449 26.4171V94.8823Z" fill="#F2F2F2"/>
<path d="M31.2389 94.8825H84.0732V26.4173C84.0877 20.8357 82.3203 15.3953 79.0282 10.888C78.9068 10.7226 78.7857 10.5593 78.6609 10.3979C77.0686 8.30937 75.1736 6.47005 73.0385 4.94063C72.9179 4.85284 72.7968 4.76661 72.6739 4.68037C70.8874 3.44405 68.9548 2.43337 66.9202 1.67136C66.7994 1.62561 66.6764 1.57973 66.5534 1.53566C64.7133 0.878885 62.8058 0.42897 60.8662 0.19422C60.7464 0.177811 60.6224 0.164997 60.4991 0.152062C58.6089 -0.0500362 56.7026 -0.0500362 54.8125 0.152062C54.6893 0.164877 54.5658 0.177812 54.4443 0.19434C52.5052 0.429161 50.5982 0.879076 48.7586 1.53578C48.6356 1.57973 48.5125 1.62561 48.3914 1.6716C46.3818 2.42395 44.4718 3.4195 42.7042 4.63605C42.5814 4.71989 42.4585 4.80661 42.3375 4.89285C41.1407 5.74712 40.0166 6.69882 38.9767 7.73825C38.1427 8.57196 37.3655 9.46066 36.6504 10.3984C36.5259 10.5593 36.4049 10.7226 36.2837 10.8878C32.9915 15.3951 31.224 20.8356 31.2385 26.4173L31.2389 94.8825Z" fill="#CCCCCC"/>
<path d="M35.5354 47.3501C33.9199 47.3501 32.6103 46.0405 32.6103 44.4251C32.6103 42.8096 33.9199 41.5 35.5354 41.5C37.1509 41.5 38.4604 42.8096 38.4604 44.4251C38.4604 46.0405 37.1509 47.3501 35.5354 47.3501Z" fill="#2980B9"/>
<path d="M0.154114 95.0003H95.6643C95.7494 95.0003 95.8184 94.9028 95.8184 94.7827C95.8184 94.6626 95.7494 94.5649 95.6643 94.5649H0.154114C0.0690765 94.5649 9.15527e-05 94.6624 9.15527e-05 94.7827C9.15527e-05 94.9029 0.0689621 95.0003 0.154114 95.0003Z" fill="#E6E6E6"/>
<path d="M45.773 75.0466H69.5392C69.8522 75.0482 70.1531 74.9257 70.3758 74.7059C70.5986 74.486 70.7251 74.1867 70.7275 73.8738V20.8256C70.7251 20.5127 70.5986 20.2134 70.3759 19.9936C70.1531 19.7737 69.8523 19.6512 69.5393 19.6528H45.773C45.46 19.6512 45.1591 19.7737 44.9364 19.9936C44.7136 20.2134 44.5872 20.5127 44.5847 20.8256V73.8738C44.5872 74.1867 44.7136 74.486 44.9364 74.7059C45.1592 74.9257 45.46 75.0482 45.773 75.0466Z" fill="white"/>
<path d="M44.5846 36.8174H70.7275V37.183H44.5846V36.8174Z" fill="#CCCCCC"/>
<path d="M44.4933 57.6792H70.6362V58.0449H44.4933V57.6792Z" fill="#CCCCCC"/>
<path d="M62.1353 19.6528H62.501V75.2294H62.1353V19.6528Z" fill="#CCCCCC"/>
<path d="M52.9942 19.6528H53.3599V75.2294H52.9942V19.6528Z" fill="#CCCCCC"/>
<path d="M17.7511 34.8656C17.7513 35.0791 17.7762 35.2919 17.8255 35.4997L19.9321 44.4641C20.0031 44.767 20.1333 45.0529 20.315 45.3055C20.4967 45.5581 20.7265 45.7724 20.9911 45.9361C21.2557 46.0998 21.55 46.2097 21.8572 46.2595C22.1643 46.3093 22.4783 46.298 22.7811 46.2264L31.2235 43.6067L31.6357 43.4794C31.9034 43.6633 32.205 43.792 32.523 43.858C32.841 43.924 33.1689 43.926 33.4876 43.8639C34.713 43.6471 35.5614 42.6499 35.3824 41.6351C35.2035 40.6202 34.0649 39.9748 32.8397 40.1904C32.5189 40.241 32.2114 40.3549 31.935 40.5254C31.6586 40.6959 31.4189 40.9197 31.2298 41.1838L31.2236 41.185L31.2022 41.1888L23.854 42.0977L23.2363 34.6449C23.1794 33.9376 22.851 33.2799 22.32 32.8093C21.789 32.3387 21.0965 32.0919 20.3876 32.1204C19.6786 32.1489 19.0082 32.4506 18.5167 32.9623C18.0252 33.474 17.7508 34.156 17.7508 34.8655L17.7511 34.8656Z" fill="#ED9DA0"/>
<path d="M17.751 34.8656C17.7511 35.0791 17.7761 35.2919 17.8254 35.4997L19.5538 44.8418C19.6249 45.1447 19.755 45.4307 19.9367 45.6833C20.1184 45.9359 20.3482 46.1501 20.6128 46.3138C20.8774 46.4775 21.1717 46.5874 21.4789 46.6372C21.786 46.687 22.1 46.6758 22.4028 46.6041L30.8452 44.2566L30.467 40.6008L24.0378 41.4833L23.236 34.6444C23.1791 33.9372 22.8507 33.2794 22.3197 32.8088C21.7887 32.3383 21.0962 32.0914 20.3873 32.1199C19.6784 32.1484 19.008 32.4501 18.5165 32.9618C18.0249 33.4735 17.7505 34.1555 17.7505 34.865L17.751 34.8656Z" fill="#0090D8"/>
<path d="M6.78605 84.0943L8.8252 85.5977L7.32186 87.6368L5.28272 86.1335L6.78605 84.0943Z" fill="#ED9DA0"/>
<path d="M4.26383 88.245L8.59847 91.4406C8.97154 91.7149 9.40122 91.9023 9.85607 91.9891L10.9383 92.1941C11.0575 92.2167 11.1808 92.2024 11.2917 92.153C11.4025 92.1037 11.4957 92.0217 11.5588 91.918C11.6218 91.8143 11.6517 91.6939 11.6444 91.5728C11.6372 91.4516 11.5932 91.3356 11.5182 91.2402L10.2059 89.5686L8.47846 86.007L8.46851 86.0161C8.21879 86.2444 7.8396 86.5876 7.81121 86.6044C7.27775 86.7225 6.86802 86.6562 6.5935 86.4073C6.11441 85.9732 6.21107 85.1218 6.21215 85.1137L6.21299 85.1071L6.20736 85.1038C6.15317 85.0672 6.0913 85.0436 6.02653 85.0347C5.96176 85.0258 5.89581 85.032 5.83379 85.0527C5.58442 85.1437 5.45436 85.4709 5.43567 85.5211C5.1923 85.5552 4.55918 86.281 4.50828 86.3398C4.14405 86.4058 3.89326 86.5426 3.76295 86.7462C3.70502 86.8477 3.66923 86.9603 3.65791 87.0767C3.6466 87.193 3.66003 87.3104 3.69731 87.4211C3.78665 87.7523 3.98655 88.0431 4.26383 88.245Z" fill="#2F2E43"/>
<path d="M24.2732 90.0444H26.8066V92.5778H24.2732V90.0444Z" fill="#ED9DA0"/>
<path d="M24.7057 94.8825H30.091C30.554 94.8819 31.011 94.7777 31.4286 94.5777L32.4214 94.1005C32.5308 94.0479 32.6215 93.9633 32.6814 93.8578C32.7414 93.7523 32.7677 93.631 32.7569 93.5101C32.7461 93.3893 32.6987 93.2746 32.621 93.1814C32.5433 93.0882 32.4391 93.0209 32.3221 92.9886L30.274 92.4218L26.7701 90.5801L26.7675 90.5934C26.702 90.9253 26.6004 91.4266 26.5878 91.457C26.2285 91.8687 25.8594 92.0584 25.4907 92.0209C24.8477 91.9558 24.4202 91.2132 24.4159 91.2056L24.4127 91.1999L24.4061 91.2006C24.3408 91.2033 24.2769 91.221 24.2195 91.2523C24.1621 91.2836 24.1127 91.3277 24.075 91.3811C23.9283 91.6023 24.0178 91.943 24.0325 91.9943C23.8568 92.1662 23.778 93.1262 23.7719 93.204C23.5179 93.4733 23.3971 93.7321 23.4126 93.9734C23.4261 94.0895 23.4641 94.2014 23.524 94.3017C23.5838 94.402 23.6642 94.4886 23.7599 94.5556C24.0284 94.7694 24.362 94.8849 24.7053 94.883L24.7057 94.8825Z" fill="#2F2E43"/>
<path d="M13.9364 50.4419H26.0782L28.0137 90.722H23.7378L20.9752 72.4128L9.8893 87.0601L5.84199 83.3983L13.9366 72.4127L13.9364 50.4419Z" fill="#2F2E43"/>
<path d="M16.7272 25.5167C16.7274 24.6897 16.9568 23.8788 17.39 23.1742C17.8231 22.4696 18.4431 21.8989 19.181 21.5254C19.9189 21.1518 20.7459 20.9901 21.5702 21.0581C22.3945 21.1262 23.1838 21.4214 23.8504 21.9109C24.5171 22.4004 25.035 23.0651 25.3468 23.8312C25.6585 24.5973 25.7518 25.4348 25.6163 26.2507C25.4808 27.0666 25.1219 27.829 24.5793 28.4532C24.0368 29.0775 23.3318 29.5391 22.5427 29.7869L21.6776 35.504L17.2676 31.829C17.2676 31.829 18.2203 30.6156 18.7312 29.2473C18.1148 28.8396 17.6092 28.2854 17.2594 27.6344C16.9097 26.9833 16.7268 26.2558 16.7272 25.5167Z" fill="#ED9DA0"/>
<path d="M16.6024 44.9204L14.6193 50.764L25.8389 50.6379L24.166 45.2985L16.6024 44.9204Z" fill="#ED9DA0"/>
<path d="M17.6154 30.0889L22.5908 31.8186L27.2944 56.1015L17.6152 57.2833H12.8843L16.499 33.1356C16.6608 32.0548 17.0407 31.0182 17.6156 30.0889H17.6154Z" fill="#0090D8"/>
<path d="M19.0107 58.6205L18.9242 54.6292L21.2547 54.5786L21.3413 58.57C21.5736 58.7969 21.7584 59.0677 21.885 59.3668C22.0115 59.6658 22.0773 59.9871 22.0785 60.3118C22.1054 61.556 21.2926 62.5827 20.263 62.6051C19.2333 62.6275 18.3767 61.637 18.3497 60.3928C18.3367 60.0682 18.3885 59.7443 18.502 59.44C18.6155 59.1357 18.7884 58.857 19.0107 58.6202V58.6205Z" fill="#ED9DA0"/>
<path d="M17.7073 28.2633C17.4746 28.303 17.2015 27.7391 16.9408 27.1898C16.3944 26.04 16.0471 25.3094 16.0207 24.276C15.9982 23.3955 16.2428 23.6266 16.4808 21.669C16.5592 21.0233 17.6623 21.0245 17.8869 20.7179C18.2661 20.2 17.6842 19.9864 18.6278 19.6759C20.3951 19.0932 21.1942 19.9984 22.3167 20.0764C22.3451 20.0783 22.9015 20.6225 23.2123 20.6507C23.7567 20.7 24.5417 20.6148 24.8942 19.7857C25.2235 19.0101 25.4416 21.2766 25.1473 21.557C24.8896 21.8278 24.658 22.1222 24.4555 22.4364C24.4435 22.4856 24.9742 20.886 25.1473 21.3596C25.2718 21.7004 25.3857 23.904 25.069 23.9699C24.804 24.025 22.6024 24.8706 20.1615 23.2034C20.0749 23.1442 20.1567 23.2386 19.8547 23.9699C19.474 24.8921 19.3876 24.9426 19.3947 25.1967C19.409 25.7468 19.8221 25.9089 19.7014 26.2702C19.6409 26.4198 19.5334 26.5455 19.3951 26.6285C19.2568 26.7115 19.0953 26.7472 18.9349 26.7303C18.6115 26.6634 18.5558 26.2632 18.3214 26.2702C18.1207 26.2763 17.8826 26.5786 17.8614 26.8837C17.8167 27.5264 18.7682 27.7032 18.9349 28.5707C19.029 29.0603 17.9218 28.2275 17.7081 28.2639L17.7073 28.2633Z" fill="#090814"/>
</g>
<defs>
<clipPath id="clip0_80_182">
<rect width="95.8184" height="95" fill="white" transform="matrix(-1 0 0 1 95.8184 0)"/>
</clipPath>
</defs>
</svg>
